<?xml version="1.0" standalone="no"?>
<!DOCTYPE svg PUBLIC "-//W3C//DTD SVG 20010904//EN"
 "http://www.w3.org/TR/2001/REC-SVG-20010904/DTD/svg10.dtd">
<svg version="1.0" xmlns="http://www.w3.org/2000/svg"
 width="6000.000000pt" height="6000.000000pt" viewBox="0 0 6000.000000 6000.000000"
 preserveAspectRatio="xMidYMid meet">
<metadata>
Created by potrace 1.14, written by Peter Selinger 2001-2017
</metadata>
<g transform="translate(0.000000,6000.000000) scale(0.100000,-0.100000)"
fill="#000000" stroke="none">
<path d="M18420 30000 l0 -10000 2315 0 2315 0 0 3840 0 3840 2315 0 2315 0 2
-3837 3 -3838 2315 0 2315 0 3 3838 2 3837 2315 0 2315 0 0 -3840 0 -3840
2315 0 2315 0 0 10000 0 10000 -2315 0 -2315 0 0 -3840 0 -3840 -6950 0 -6950
0 0 3840 0 3840 -2315 0 -2315 0 0 -10000z"/>
</g>
</svg>
